<?xml version="1.0" encoding="iso-8859-1"?>
<!-- Generator: Adobe Illustrator 19.0.0, SVG Export Plug-In . SVG Version: 6.00 Build 0)  -->
<svg version="1.1" id="Layer_1" xmlns="http://www.w3.org/2000/svg" xmlns:xlink="http://www.w3.org/1999/xlink" x="0px" y="0px"
	 viewBox="0 0 512 512" style="enable-background:new 0 0 512 512;" xml:space="preserve">
<path style="fill:#E2B844;" d="M503.186,340.026v-168.74c-44.682,0-80.903-36.221-80.903-80.903H89.425
	c0,44.682-36.221,80.903-80.903,80.903v168.74c44.682,0,80.903,36.221,80.903,80.903h332.858
	C422.283,376.247,458.505,340.026,503.186,340.026z"/>
<path style="fill:#FCD559;" d="M112.682,394.346c-9.689-37.952-39.625-67.888-77.577-77.577V194.542
	c37.952-9.689,67.888-39.625,77.577-77.577h286.346c9.689,37.952,39.625,67.888,77.577,77.577V316.77
	c-37.952,9.689-67.888,39.625-77.577,77.577H112.682z"/>
<path d="M503.332,162.962c-39.83,0-72.235-32.405-72.235-72.235c0-4.787-3.881-8.668-8.668-8.668H167.01
	c-4.787,0-8.668,3.881-8.668,8.668s3.881,8.668,8.668,8.668h247.167c4.098,42.484,38.002,76.389,80.487,80.487v152.236
	c-42.484,4.098-76.389,38.002-80.487,80.487H97.823c-4.098-42.484-38.002-76.389-80.487-80.487V179.882
	c42.484-4.098,76.389-38.002,80.487-80.487h34.514c4.787,0,8.668-3.881,8.668-8.668s-3.881-8.668-8.668-8.668H89.571
	c-4.787,0-8.668,3.881-8.668,8.668c0,39.83-32.405,72.235-72.235,72.235c-4.787,0-8.668,3.881-8.668,8.668v168.74
	c0,4.787,3.881,8.668,8.668,8.668c39.83,0,72.235,32.405,72.235,72.235c0,4.787,3.881,8.668,8.668,8.668h332.858
	c4.787,0,8.668-3.881,8.668-8.668c0-39.83,32.405-72.235,72.235-72.235c4.787,0,8.668-3.881,8.668-8.668V171.63
	C512,166.843,508.119,162.962,503.332,162.962z"/>
<path d="M89.86,276.537c-4.787,0-8.668,3.881-8.668,8.668v17.025c0,4.787,3.881,8.668,8.668,8.668s8.668-3.881,8.668-8.668v-17.025
	C98.528,280.418,94.647,276.537,89.86,276.537z"/>
<path d="M98.528,218.438h12.713c4.787,0,8.668-3.881,8.668-8.668s-3.881-8.668-8.668-8.668H68.479c-4.787,0-8.668,3.881-8.668,8.668
	s3.881,8.668,8.668,8.668h12.713v39.03c0,4.787,3.881,8.668,8.668,8.668s8.668-3.881,8.668-8.668V218.438z"/>
<path d="M147.07,302.23v-92.46c0-4.787-3.881-8.668-8.668-8.668s-8.668,3.881-8.668,8.668v92.46c0,4.787,3.881,8.668,8.668,8.668
	S147.07,307.017,147.07,302.23z"/>
<path d="M255.711,201.102c-4.787,0-8.668,3.881-8.668,8.668v92.46c0,4.787,3.881,8.668,8.668,8.668s8.668-3.881,8.668-8.668v-37.292
	c10.737,3.627,18.492,13.788,18.492,25.734v11.558c0,4.787,3.881,8.668,8.668,8.668s8.668-3.881,8.668-8.668v-11.558
	c0-14.679-7.143-27.719-18.137-35.828c10.995-8.11,18.137-21.149,18.137-35.828v-9.246c0-4.787-3.881-8.668-8.668-8.668
	s-8.668,3.881-8.668,8.668v9.246c0,11.946-7.755,22.107-18.492,25.734v-34.98C264.379,204.983,260.498,201.102,255.711,201.102z"/>
<path d="M199.045,218.438c8.266,0,14.991,6.725,14.991,14.991c0,4.787,3.881,8.668,8.668,8.668s8.668-3.881,8.668-8.668
	c0-17.825-14.502-32.328-32.328-32.328s-32.328,14.502-32.328,32.328v45.142c0,17.825,14.502,32.328,32.328,32.328
	s32.328-14.502,32.328-32.328c0-4.787-3.881-8.668-8.668-8.668s-8.668,3.881-8.668,8.668c0,8.266-6.725,14.991-14.991,14.991
	s-14.991-6.725-14.991-14.991v-45.142C184.054,225.163,190.78,218.438,199.045,218.438z"/>
<path d="M382.266,302.23c0-4.787-3.881-8.668-8.668-8.668h-38.651v-27.738h20.159c4.787,0,8.668-3.881,8.668-8.668
	s-3.881-8.668-8.668-8.668h-20.159v-30.05h38.651c4.787,0,8.668-3.881,8.668-8.668s-3.881-8.668-8.668-8.668h-47.319
	c-4.787,0-8.668,3.881-8.668,8.668v92.46c0,4.787,3.881,8.668,8.668,8.668h47.319C378.385,310.898,382.266,307.017,382.266,302.23z"
	/>
<path d="M422.14,310.898c4.787,0,8.668-3.881,8.668-8.668v-83.792h12.713c4.787,0,8.668-3.881,8.668-8.668s-3.881-8.668-8.668-8.668
	h-42.763c-4.787,0-8.668,3.881-8.668,8.668s3.881,8.668,8.668,8.668h12.713v83.792C413.472,307.017,417.353,310.898,422.14,310.898z
	"/>
<path d="M119.043,168.529c0,4.787,3.881,8.668,8.668,8.668h256.578c4.787,0,8.668-3.881,8.668-8.668s-3.881-8.668-8.668-8.668
	H127.711C122.924,159.861,119.043,163.742,119.043,168.529z"/>
<path d="M326.501,140.213c4.787,0,8.668-3.881,8.668-8.668s-3.881-8.668-8.668-8.668H185.499c-4.787,0-8.668,3.881-8.668,8.668
	s3.881,8.668,8.668,8.668H326.501z"/>
<path d="M127.711,352.139h186.08c4.787,0,8.668-3.881,8.668-8.668s-3.881-8.668-8.668-8.668h-186.08
	c-4.787,0-8.668,3.881-8.668,8.668S122.924,352.139,127.711,352.139z"/>
<path d="M344.419,352.139h39.87c4.787,0,8.668-3.881,8.668-8.668s-3.881-8.668-8.668-8.668h-39.87c-4.787,0-8.668,3.881-8.668,8.668
	S339.632,352.139,344.419,352.139z"/>
<path d="M185.499,389.124h141.002c4.787,0,8.668-3.881,8.668-8.668s-3.881-8.668-8.668-8.668H185.499
	c-4.787,0-8.668,3.881-8.668,8.668S180.712,389.124,185.499,389.124z"/>
<g>
</g>
<g>
</g>
<g>
</g>
<g>
</g>
<g>
</g>
<g>
</g>
<g>
</g>
<g>
</g>
<g>
</g>
<g>
</g>
<g>
</g>
<g>
</g>
<g>
</g>
<g>
</g>
<g>
</g>
</svg>
