<?xml version="1.0" ?>

<!-- Uploaded to: SVG Repo, www.svgrepo.com, Generator: SVG Repo Mixer Tools -->
<svg width="800px" height="800px" viewBox="0 0 32 32" id="svg5" version="1.1" xmlns="http://www.w3.org/2000/svg" xmlns:svg="http://www.w3.org/2000/svg">

<defs id="defs2"/>

<g id="layer1" transform="translate(-108,-436)">

<path d="m 133.88867,456.01953 a 1,1 0 0 0 -0.5957,0.28711 l -1.79297,1.79297 -0.79297,-0.79297 a 1,1 0 0 0 -1.41406,0 1,1 0 0 0 0,1.41406 l 1.5,1.5 a 1.0001,1.0001 0 0 0 1.41406,0 l 2.5,-2.5 a 1,1 0 0 0 0,-1.41406 1,1 0 0 0 -0.81836,-0.28711 z" id="path453681" style="color:#000000;fill:#000000;fill-rule:evenodd;stroke-linecap:round;stroke-linejoin:round;stroke-miterlimit:4.1;-inkscape-stroke:none"/>

<path d="m 122,453.01367 a 1,1 0 0 0 -1,1 1,1 0 0 0 1,1 h 3 a 1,1 0 0 0 1,-1 1,1 0 0 0 -1,-1 z" id="path453659" style="color:#000000;fill:#000000;fill-rule:evenodd;stroke-linecap:round;stroke-linejoin:round;stroke-miterlimit:4.1;-inkscape-stroke:none"/>

<path d="m 115,450.01367 a 1.0001,1.0001 0 0 0 -1,1 v 4 a 1.0001,1.0001 0 0 0 1,1 h 4 a 1.0001,1.0001 0 0 0 1,-1 v -4 a 1.0001,1.0001 0 0 0 -1,-1 z m 1,2 h 2 v 2 h -2 z" id="path453641" style="color:#000000;fill:#000000;fill-rule:evenodd;stroke-linecap:round;stroke-linejoin:round;stroke-miterlimit:4.1;-inkscape-stroke:none"/>

<path d="m 112,441.01367 c -1.0907,0 -2,0.9093 -2,2 v 15 c 0,1.0907 0.9093,2 2,2 h 14.3457 c 0.8278,2.32506 3.05309,4 5.6543,4 3.30186,0 6,-2.69814 6,-6 0,-1.768 -0.77435,-3.36262 -2,-4.46289 v -10.53711 c 0,-1.0907 -0.9093,-2 -2,-2 z m 0,2 h 22 v 2 h -22 z m 0,4 h 22 v 5.34571 c -0.0729,-0.026 -0.14656,-0.051 -0.2207,-0.0742 -0.56285,-0.17591 -1.1602,-0.27149 -1.7793,-0.27149 -3.19867,0 -5.83081,2.53127 -5.99219,5.69141 -0.005,0.10194 -0.008,0.20541 -0.008,0.30859 h -14 z m 10,3 a 1,1 0 0 0 -1,1 1,1 0 0 0 1,1 h 5 a 1,1 0 0 0 1,-1 1,1 0 0 0 -1,-1 z m 10,4 c 2.22098,0 4,1.77902 4,4 0,2.22098 -1.77902,4 -4,4 -1.90036,0 -3.47694,-1.30297 -3.89258,-3.07031 a 1,1 0 0 0 -0.0527,-0.25977 c -0.003,-0.0196 -0.007,-0.0389 -0.01,-0.0586 -0.01,-0.0664 -0.0166,-0.13366 -0.0234,-0.20117 -0.0136,-0.13503 -0.0215,-0.27135 -0.0215,-0.41016 0,-0.0694 0.002,-0.13853 0.006,-0.20703 0.007,-0.137 0.0189,-0.2714 0.0391,-0.4043 0.0101,-0.0664 0.0219,-0.13196 0.0352,-0.19726 0.37088,-1.8284 1.97656,-3.19141 3.91992,-3.19141 z" id="path453617" style="color:#000000;fill:#000000;fill-rule:evenodd;stroke-linecap:round;stroke-linejoin:round;stroke-miterlimit:4.1;-inkscape-stroke:none"/>

</g>

</svg>