<?xml version="1.0" encoding="utf-8"?><!-- Uploaded to: SVG Repo, www.svgrepo.com, Generator: SVG Repo Mixer Tools -->
<svg width="800px" height="800px" viewBox="0 0 24 24" id="Layer_1" data-name="Layer 1" xmlns="http://www.w3.org/2000/svg"><defs><style>.cls-1{fill:none;stroke:#020202;stroke-miterlimit:10;stroke-width:1.91px;}</style></defs><rect class="cls-1" x="4.36" y="1.5" width="15.27" height="21" rx="2.04"/><path class="cls-1" d="M13.91,2.45H10.09a.94.94,0,0,1-.95-1h5.72A.94.94,0,0,1,13.91,2.45Z"/><path class="cls-1" d="M9.14,14.86h3.34a1.43,1.43,0,0,0,1.43-1.43h0A1.43,1.43,0,0,0,12.48,12h-1a1.43,1.43,0,0,1-1.43-1.43h0a1.43,1.43,0,0,1,1.43-1.43h3.34"/><line class="cls-1" x1="12" y1="7.23" x2="12" y2="9.14"/><line class="cls-1" x1="12" y1="14.86" x2="12" y2="16.77"/></svg>