<svg xmlns="http://www.w3.org/2000/svg" width="128" height="128" viewBox="0 0 128 128">
  <title>PERSON</title>
  <g>
    <g>
      <path d="M62.833,64.213h2.333a29.5,29.5,0,0,1,29.5,29.5v10.2a0,0,0,0,1,0,0H33.333a0,0,0,0,1,0,0v-10.2A29.5,29.5,0,0,1,62.833,64.213Z" fill="#318fb5"/>
      <ellipse cx="64" cy="44.151" rx="20.138" ry="20.062" fill="#f7d6bf"/>
    </g>
    <g>
      <path d="M34.375,85.715A1.748,1.748,0,0,0,36.6,84.634c.294-.847.632-1.69,1.006-2.5a1.75,1.75,0,0,0-3.18-1.463c-.421.917-.8,1.866-1.134,2.82A1.752,1.752,0,0,0,34.375,85.715Z" fill="#172956"/>
      <path d="M73.75,63.671a21.888,21.888,0,1,0-19.518-.009A31.179,31.179,0,0,0,38.643,73.927a1.75,1.75,0,0,0,2.708,2.218A27.669,27.669,0,0,1,62.833,65.963h2.334a27.782,27.782,0,0,1,27.75,27.75v8.449H35.083V93.713a1.75,1.75,0,0,0-3.5,0v10.2a1.751,1.751,0,0,0,1.75,1.75H94.667a1.751,1.751,0,0,0,1.75-1.75v-10.2A31.3,31.3,0,0,0,73.75,63.671ZM45.612,44.151A18.388,18.388,0,1,1,64,62.463,18.371,18.371,0,0,1,45.612,44.151Z" fill="#172956"/>
    </g>
  </g>
</svg>
