<svg xmlns="http://www.w3.org/2000/svg" viewBox="0 0 512 512"><defs><style>.cls-1{fill:#7cc8fb;}.cls-2{fill:#f4ce78;}.cls-3{fill:#f6c752;}.cls-4{fill:#e0b044;}.cls-5{fill:#fff;}.cls-6{fill:#3586cb;}.cls-7{fill:#e88032;}.cls-8{fill:#4f4f74;}.cls-9{fill:#f6d372;}</style></defs><title>Public Transport</title><g id="BULINE"><circle class="cls-1" cx="256" cy="256" r="256"/></g><g id="Icons"><path class="cls-2" d="M420.6,245.62A29,29,0,0,0,445.43,267a8.1,8.1,0,0,1,6.89,6l16.57,62.81a8.17,8.17,0,0,1-5.82,10L103.69,440.63a8.17,8.17,0,0,1-10-5.81L77.55,373.54a8.18,8.18,0,0,1,4.24-9.32,29,29,0,0,0-14.42-54.68,8.18,8.18,0,0,1-8.28-6L42.92,242.24a8.17,8.17,0,0,1,5.82-10l359.37-94.79a8.17,8.17,0,0,1,10,5.82l16.57,62.81a8.1,8.1,0,0,1-3,8.63A29,29,0,0,0,420.6,245.62Z"/><path class="cls-3" d="M465.89,324.51l3.19,12.09a8.17,8.17,0,0,1-5.82,10L103.89,441.36a8.17,8.17,0,0,1-10-5.81L77.74,374.27A8.18,8.18,0,0,1,82,365a29,29,0,0,0-14.42-54.68,8.19,8.19,0,0,1-8.28-6L43.11,243a8.18,8.18,0,0,1,5.82-10l24.49-6.46,13,49.2a8.18,8.18,0,0,0,8.28,6,29,29,0,0,1,14.42,54.68,8.2,8.2,0,0,0-4.24,9.32L121,407a8.17,8.17,0,0,0,10,5.82Z"/><path class="cls-3" d="M421,207.17a29,29,0,0,0,18.54,27.05,8.11,8.11,0,0,1,5.13,7.58v65a8.16,8.16,0,0,1-8.17,8.16H64.8a8.16,8.16,0,0,1-8.17-8.16V243.38a8.17,8.17,0,0,1,6.47-7.93,29,29,0,0,0,0-56.55A8.19,8.19,0,0,1,56.63,171V107.59a8.17,8.17,0,0,1,8.17-8.17H436.46a8.17,8.17,0,0,1,8.17,8.17v65a8.11,8.11,0,0,1-5.13,7.58A29,29,0,0,0,421,207.17Z"/><path class="cls-4" d="M444.63,295v12.5a8.16,8.16,0,0,1-8.17,8.16H64.8a8.16,8.16,0,0,1-8.17-8.16V244.13a8.18,8.18,0,0,1,6.47-7.93,29,29,0,0,0,0-56.55,8.18,8.18,0,0,1-6.47-7.93V108.34a8.17,8.17,0,0,1,8.17-8.17H90.13v50.88A8.17,8.17,0,0,0,96.6,159a29,29,0,0,1,0,56.55,8.19,8.19,0,0,0-6.47,7.93v63.38A8.17,8.17,0,0,0,98.3,295Z"/><rect class="cls-5" x="173.63" y="103.26" width="16.67" height="30.33" rx="8.33"/><rect class="cls-5" x="173.63" y="138.76" width="16.67" height="30.33" rx="8.33"/><rect class="cls-5" x="173.63" y="174.26" width="16.67" height="30.33" rx="8.33"/><rect class="cls-5" x="173.63" y="209.76" width="16.67" height="30.33" rx="8.33"/><rect class="cls-6" x="298.17" y="146.63" width="16.67" height="190.59" rx="8.33" transform="translate(548.43 -64.58) rotate(90)"/><rect class="cls-5" x="173.63" y="245.26" width="16.67" height="30.33" rx="8.33"/><rect class="cls-5" x="173.63" y="280.76" width="16.67" height="30.33" rx="8.33"/><rect class="cls-7" x="90.13" y="118.42" width="71.5" height="25.33" rx="2.67"/><rect class="cls-7" x="90.13" y="227.26" width="71.5" height="25.33" rx="2.67"/><rect class="cls-7" x="90.13" y="270.59" width="71.5" height="25.33" rx="2.67"/><rect class="cls-7" x="90.13" y="161.42" width="71.5" height="48.17" rx="3.68"/><path class="cls-6" d="M334.65,155.8h-.72v-8.37a1.56,1.56,0,0,0-1.56-1.56h-9.08V131.34a6.87,6.87,0,0,0-5-6.61,156.25,156.25,0,0,0-87.38,0,6.88,6.88,0,0,0-5,6.61v14.53h-9.2a1.56,1.56,0,0,0-1.56,1.56v8.37h-.72a3.26,3.26,0,0,0-3.25,3.25v10.41a3.25,3.25,0,0,0,3.25,3.25H219a3.25,3.25,0,0,0,3.25-3.25V159.05A3.26,3.26,0,0,0,219,155.8h-.72V149h7.64v67.62a6.87,6.87,0,0,0,6.87,6.86h1.71v7.91a3.11,3.11,0,0,0,3.12,3.12h8.14a3.12,3.12,0,0,0,3.13-3.12v-7.91h52v7.91a3.12,3.12,0,0,0,3.12,3.12h8.15a3.12,3.12,0,0,0,3.12-3.12v-7.91h1.13a6.86,6.86,0,0,0,6.86-6.86V149h7.52v6.8h-.72a3.26,3.26,0,0,0-3.25,3.25v10.41a3.25,3.25,0,0,0,3.25,3.25h4.56a3.25,3.25,0,0,0,3.25-3.25V159.05A3.26,3.26,0,0,0,334.65,155.8Z"/><rect class="cls-5" x="244.47" y="127.25" width="60.29" height="14.13" rx="3.9"/><path class="cls-5" d="M311.72,187.53a161.51,161.51,0,0,1-74.21,0,3.87,3.87,0,0,1-3-3.77V151.3a3.87,3.87,0,0,1,3.86-3.87h72.47a3.87,3.87,0,0,1,3.87,3.87v32.46A3.88,3.88,0,0,1,311.72,187.53Z"/><rect class="cls-5" x="262.39" y="202.31" width="24.46" height="5.05" rx="2.52"/><rect class="cls-5" x="262.39" y="212.4" width="24.46" height="5.05" rx="2.52"/><circle class="cls-5" cx="239.6" cy="210.24" r="4.68"/><circle class="cls-5" cx="251.31" cy="210.24" r="4.68"/><circle class="cls-5" cx="298.91" cy="210.24" r="4.68"/><circle class="cls-5" cx="310.62" cy="210.24" r="4.68"/><path class="cls-8" d="M221.62,293.76V268.57h12.79q4,0,5.82,2a6.63,6.63,0,0,1,1.83,4.59,5.82,5.82,0,0,1-1.07,3.41,5.41,5.41,0,0,1-3.16,2.09q4.89,1.18,4.89,5.87a7.92,7.92,0,0,1-1.73,5c-1.15,1.48-3.6,2.21-7.37,2.21Zm7.13-15.54h3.58a2.33,2.33,0,0,0,1.9-.68,2.29,2.29,0,0,0,.55-1.46c0-1.41-.86-2.11-2.58-2.11h-3.45Zm0,9.93h3.76a2.72,2.72,0,0,0,2.06-.69,2.2,2.2,0,0,0,.66-1.56,2.42,2.42,0,0,0-.64-1.6,3,3,0,0,0-2.34-.73h-3.5Z"/><path class="cls-8" d="M266.35,268.57v16.68c0,3.16-.94,5.44-2.82,6.82a12,12,0,0,1-7.34,2.08,13.32,13.32,0,0,1-7.65-2c-1.92-1.33-2.89-3.5-2.89-6.5V268.57h7.87v16.18a3.8,3.8,0,0,0,.76,2.64,3.15,3.15,0,0,0,2.44.83,4,4,0,0,0,2.29-.6,2.32,2.32,0,0,0,1.07-1.35,15.55,15.55,0,0,0,.18-3V268.57Z"/><path class="cls-8" d="M267.88,286.47l7.18-1.29q.9,3,4.65,3c1.94,0,2.92-.51,2.92-1.55a1.44,1.44,0,0,0-.68-1.26,7.19,7.19,0,0,0-2.41-.8c-4.42-.85-7.25-2-8.51-3.32a6.93,6.93,0,0,1-1.88-4.82,7.53,7.53,0,0,1,2.71-5.93q2.7-2.35,7.78-2.36,7.69,0,10.17,6.18l-6.41,1.94a3.91,3.91,0,0,0-4-2.53c-1.69,0-2.53.52-2.53,1.57a1.24,1.24,0,0,0,.57,1.09,7.1,7.1,0,0,0,2.22.74,46,46,0,0,1,6.42,1.69,7.06,7.06,0,0,1,4.45,6.72,7.45,7.45,0,0,1-3.1,6.2,13.05,13.05,0,0,1-8.14,2.37Q270,294.15,267.88,286.47Z"/><path class="cls-8" d="M313.25,274.6v19.16h-7.33V274.6H300.7v-6h17.77v6Z"/><path class="cls-8" d="M328.4,268.57v25.19h-7.73V268.57Z"/><path class="cls-8" d="M346.66,284.14l7.07.43a10.32,10.32,0,0,1-3.43,7.1,11.73,11.73,0,0,1-15.47-.92q-3.16-3.39-3.16-9.38a14.6,14.6,0,0,1,3-9.56,10.2,10.2,0,0,1,8.34-3.63q5,0,7.69,2.77a11.43,11.43,0,0,1,3,7.34l-7.22.39a5.52,5.52,0,0,0-1-3.65,2.94,2.94,0,0,0-2.28-1.13c-2.44,0-3.65,2.45-3.65,7.35,0,2.74.31,4.6.95,5.59a3,3,0,0,0,2.66,1.48C345.27,288.32,346.41,286.92,346.66,284.14Z"/><path class="cls-8" d="M379.27,293.76h-8.46l-4.35-9.52L363.84,288v5.81h-7.29V268.57h7.29V279l7-10.41h6.95l-6.36,9.22Z"/><path class="cls-8" d="M400.3,287.74v6h-19V268.57h19v5.81H388.93V278h9.19v5.6h-9.19v4.11Z"/><path class="cls-8" d="M413.72,274.6v19.16h-7.33V274.6h-5.22v-6h17.77v6Z"/><circle class="cls-9" cx="410.05" cy="158.24" r="14.82"/><circle class="cls-9" cx="410.05" cy="127.38" r="10.49"/></g></svg>